<svg width="1200" height="400" viewBox="0 0 1200 400" xmlns="http://www.w3.org/2000/svg">
  <defs>
    <!-- subtle grid pattern -->
    <pattern id="grid" width="40" height="40" patternUnits="userSpaceOnUse">
      <path d="M 40 0 L 0 0 0 40" fill="none" stroke="#353f4a" stroke-width="0.5"/>
    </pattern>
    <!-- chip trace lines pattern -->
    <pattern id="traces" width="120" height="120" patternUnits="userSpaceOnUse" x="0" y="0">
      <path d="M20 0 L20 40 L60 40 L60 80 L100 80 L100 120" fill="none" stroke="#353f4a" stroke-width="0.8"/>
      <path d="M80 0 L80 20 L40 20 L40 60 L0 60" fill="none" stroke="#353f4a" stroke-width="0.8"/>
    </pattern>
  </defs>

  <!-- background -->
  <rect width="1200" height="400" fill="#21272e"/>

  <!-- grid overlay -->
  <rect width="1200" height="400" fill="url(#grid)" opacity="0.6"/>

  <!-- trace lines -->
  <rect width="1200" height="400" fill="url(#traces)" opacity="0.5"/>

  <!-- accent glow region (right side, warm) -->
  <ellipse cx="900" cy="200" rx="380" ry="260" fill="#b84c25" opacity="0.06"/>

  <!-- left vertical accent bar -->
  <rect x="80" y="60" width="2" height="280" fill="#b84c25" opacity="0.8" rx="1"/>

  <!-- logo mark -->
  <g transform="translate(112, 148)">
    <rect width="64" height="64" rx="12" fill="#353f4a"/>
    <rect width="64" height="64" rx="12" fill="none" stroke="#b84c25" stroke-width="1" opacity="0.5"/>
    <!-- u-arch -->
    <path d="M14 18 L14 36 Q14 50 22 50 L42 50 Q50 50 50 36 L50 18" stroke="#d96b3f" stroke-width="3.5" stroke-linecap="round" fill="none"/>
    <!-- gate line -->
    <line x1="8" y1="18" x2="56" y2="18" stroke="#8a97a6" stroke-width="2" stroke-linecap="round"/>
    <!-- center node -->
    <circle cx="32" cy="42" r="4" fill="#b84c25"/>
  </g>

  <!-- wordmark -->
  <text x="196" y="186" font-family="-apple-system, BlinkMacSystemFont, Inter, sans-serif" font-size="56" font-weight="700" letter-spacing="-2" fill="#e8ecf0">u</text>
  <text x="228" y="186" font-family="-apple-system, BlinkMacSystemFont, Inter, sans-serif" font-size="56" font-weight="700" letter-spacing="-2" fill="#d96b3f">arch</text>
  <text x="376" y="186" font-family="-apple-system, BlinkMacSystemFont, Inter, sans-serif" font-size="56" font-weight="700" letter-spacing="-2" fill="#e8ecf0">labs</text>

  <!-- tagline -->
  <text x="196" y="218" font-family="-apple-system, BlinkMacSystemFont, Inter, sans-serif" font-size="15" font-weight="400" letter-spacing="0.5" fill="#8a97a6">AI MICROPROCESSOR CO-DESIGN · OPEN SOURCE</text>

  <!-- divider line -->
  <line x1="196" y1="238" x2="580" y2="238" stroke="#353f4a" stroke-width="1"/>

  <!-- three pillars -->
  <!-- pillar 1 -->
  <g transform="translate(196, 260)">
    <circle cx="6" cy="6" r="3" fill="#b84c25"/>
    <text x="18" y="10" font-family="-apple-system, BlinkMacSystemFont, Inter, sans-serif" font-size="13" font-weight="500" fill="#e8ecf0">Open RTL</text>
    <text x="18" y="28" font-family="-apple-system, BlinkMacSystemFont, Inter, sans-serif" font-size="12" fill="#8a97a6">Synthesizable, forkable, yours</text>
  </g>

  <!-- pillar 2 -->
  <g transform="translate(196, 308)">
    <circle cx="6" cy="6" r="3" fill="#b84c25"/>
    <text x="18" y="10" font-family="-apple-system, BlinkMacSystemFont, Inter, sans-serif" font-size="13" font-weight="500" fill="#e8ecf0">AI co-design methods</text>
    <text x="18" y="28" font-family="-apple-system, BlinkMacSystemFont, Inter, sans-serif" font-size="12" fill="#8a97a6">Prompts, loops, and rationale — documented</text>
  </g>

  <!-- right: decorative chip schematic -->
  <g transform="translate(740, 80)" opacity="0.85">
    <!-- outer die boundary -->
    <rect x="0" y="0" width="360" height="240" rx="6" fill="none" stroke="#353f4a" stroke-width="1.5"/>

    <!-- core block -->
    <rect x="100" y="60" width="160" height="120" rx="4" fill="#353f4a" stroke="#b84c25" stroke-width="1"/>
    <text x="180" y="116" font-family="monospace" font-size="11" fill="#d96b3f" text-anchor="middle" font-weight="500">CORE</text>
    <text x="180" y="132" font-family="monospace" font-size="9" fill="#8a97a6" text-anchor="middle">AI co-designed</text>

    <!-- cache block top-left -->
    <rect x="14" y="14" width="70" height="40" rx="3" fill="#353f4a" stroke="#353f4a" stroke-width="1"/>
    <rect x="14" y="14" width="70" height="40" rx="3" fill="none" stroke="#8a97a6" stroke-width="0.5"/>
    <text x="49" y="37" font-family="monospace" font-size="9" fill="#8a97a6" text-anchor="middle">I-CACHE</text>

    <!-- cache block top-right -->
    <rect x="276" y="14" width="70" height="40" rx="3" fill="#353f4a" stroke="#8a97a6" stroke-width="0.5"/>
    <text x="311" y="37" font-family="monospace" font-size="9" fill="#8a97a6" text-anchor="middle">D-CACHE</text>

    <!-- mem controller bottom -->
    <rect x="110" y="194" width="140" height="36" rx="3" fill="#353f4a" stroke="#8a97a6" stroke-width="0.5"/>
    <text x="180" y="215" font-family="monospace" font-size="9" fill="#8a97a6" text-anchor="middle">MEM CTRL</text>

    <!-- io blocks left -->
    <rect x="14" y="80" width="50" height="80" rx="3" fill="#353f4a" stroke="#8a97a6" stroke-width="0.5"/>
    <text x="39" y="120" font-family="monospace" font-size="8" fill="#8a97a6" text-anchor="middle">I/O</text>

    <!-- io blocks right -->
    <rect x="296" y="80" width="50" height="80" rx="3" fill="#353f4a" stroke="#8a97a6" stroke-width="0.5"/>
    <text x="321" y="120" font-family="monospace" font-size="8" fill="#8a97a6" text-anchor="middle">I/O</text>

    <!-- connecting lines: cache to core -->
    <line x1="84" y1="34" x2="100" y2="90" stroke="#353f4a" stroke-width="1" stroke-dasharray="3,2"/>
    <line x1="276" y1="34" x2="260" y2="90" stroke="#353f4a" stroke-width="1" stroke-dasharray="3,2"/>
    <!-- io to core -->
    <line x1="64" y1="120" x2="100" y2="120" stroke="#353f4a" stroke-width="1" stroke-dasharray="3,2"/>
    <line x1="296" y1="120" x2="260" y2="120" stroke="#353f4a" stroke-width="1" stroke-dasharray="3,2"/>
    <!-- core to mem -->
    <line x1="180" y1="180" x2="180" y2="194" stroke="#b84c25" stroke-width="1" stroke-dasharray="3,2" opacity="0.7"/>

    <!-- bus line across bottom -->
    <line x1="14" y1="186" x2="346" y2="186" stroke="#353f4a" stroke-width="1"/>
    <circle cx="110" cy="186" r="2.5" fill="#8a97a6" opacity="0.6"/>
    <circle cx="250" cy="186" r="2.5" fill="#8a97a6" opacity="0.6"/>

    <!-- pin marks on outer edge -->
    <line x1="30" y1="0" x2="30" y2="-8" stroke="#8a97a6" stroke-width="1" opacity="0.5"/>
    <line x1="60" y1="0" x2="60" y2="-8" stroke="#8a97a6" stroke-width="1" opacity="0.5"/>
    <line x1="90" y1="0" x2="90" y2="-8" stroke="#8a97a6" stroke-width="1" opacity="0.5"/>
    <line x1="270" y1="0" x2="270" y2="-8" stroke="#8a97a6" stroke-width="1" opacity="0.5"/>
    <line x1="300" y1="0" x2="300" y2="-8" stroke="#8a97a6" stroke-width="1" opacity="0.5"/>
    <line x1="330" y1="0" x2="330" y2="-8" stroke="#8a97a6" stroke-width="1" opacity="0.5"/>

    <line x1="30" y1="240" x2="30" y2="248" stroke="#8a97a6" stroke-width="1" opacity="0.5"/>
    <line x1="60" y1="240" x2="60" y2="248" stroke="#8a97a6" stroke-width="1" opacity="0.5"/>
    <line x1="300" y1="240" x2="300" y2="248" stroke="#8a97a6" stroke-width="1" opacity="0.5"/>
    <line x1="330" y1="240" x2="330" y2="248" stroke="#8a97a6" stroke-width="1" opacity="0.5"/>

    <line x1="0" y1="100" x2="-8" y2="100" stroke="#8a97a6" stroke-width="1" opacity="0.5"/>
    <line x1="0" y1="140" x2="-8" y2="140" stroke="#8a97a6" stroke-width="1" opacity="0.5"/>
    <line x1="360" y1="100" x2="368" y2="100" stroke="#8a97a6" stroke-width="1" opacity="0.5"/>
    <line x1="360" y1="140" x2="368" y2="140" stroke="#8a97a6" stroke-width="1" opacity="0.5"/>
  </g>

  <!-- bottom bar -->
  <rect x="0" y="380" width="1200" height="20" fill="#353f4a"/>
  <text x="80" y="394" font-family="monospace" font-size="10" fill="#8a97a6">uarchlabs.com</text>
  <text x="1120" y="394" font-family="monospace" font-size="10" fill="#8a97a6" text-anchor="end">open source · 2026</text>
</svg>
